<svg width="1963" height="44" viewBox="0 0 1963 44" fill="none" xmlns="http://www.w3.org/2000/svg">
<mask id="mask0_5_77" style="mask-type:alpha" maskUnits="userSpaceOnUse" x="0" y="0" width="1963" height="44">
<path d="M1941 0C1953.15 0 1963 9.84974 1963 22C1963 34.1503 1953.15 44 1941 44C1940.66 44 1940.33 43.9914 1940 43.9766V44C1682.94 26.2577 1543.35 25.9896 1303 44V43.9766C1302.67 43.9914 1302.34 44 1302 44C1301.83 44 1301.67 43.9969 1301.5 43.9932C1301.33 43.9969 1301.17 44 1301 44C1300.66 44 1300.33 43.9914 1300 43.9766V44C1042.94 26.2577 903.35 25.9896 663 44V43.9766C662.669 43.9914 662.335 44 662 44C661.833 44 661.666 43.9969 661.5 43.9932C661.334 43.9969 661.167 44 661 44C660.665 44 660.331 43.9914 660 43.9766V44C402.945 26.2577 263.35 25.9896 23 44V43.9766C22.6685 43.9914 22.3352 44 22 44C9.84974 44 0 34.1503 0 22C0 9.84974 9.84974 0 22 0C22.3351 0 22.6685 0.00763177 23 0.0224609V0C23.155 0.0167341 23.31 0.0321147 23.4648 0.0488281C24.0785 0.0891711 24.6853 0.154495 25.2842 0.244141C270.68 26.6547 409.941 27.0293 657.686 0.248047C658.296 0.155879 658.914 0.0898257 659.539 0.0488281C659.693 0.0321805 659.846 0.0166684 660 0V0.0224609C660.331 0.00763177 660.665 0 661 0C661.167 0 661.334 0.0021526 661.5 0.00585938C661.666 0.0021526 661.833 0 662 0C662.335 0 662.669 0.00763177 663 0.0224609V0C663.155 0.0167341 663.31 0.0321147 663.465 0.0488281C664.078 0.0891711 664.685 0.154495 665.284 0.244141C910.68 26.6547 1049.94 27.0293 1297.69 0.248047C1298.3 0.155879 1298.91 0.0898257 1299.54 0.0488281C1299.69 0.0321805 1299.85 0.0166684 1300 0V0.0224609C1300.33 0.00763177 1300.66 0 1301 0C1301.17 0 1301.33 0.0021526 1301.5 0.00585938C1301.67 0.0021526 1301.83 0 1302 0C1302.34 0 1302.67 0.00763177 1303 0.0224609V0C1303.15 0.0167341 1303.31 0.0321147 1303.46 0.0488281C1304.08 0.0891711 1304.69 0.154495 1305.28 0.244141C1550.68 26.6547 1689.94 27.0293 1937.69 0.248047C1938.3 0.155879 1938.91 0.0898257 1939.54 0.0488281C1939.69 0.0321805 1939.85 0.0166684 1940 0V0.0224609C1940.33 0.00763177 1940.66 0 1941 0Z" fill="#D9D9D9"/>
</mask>
<g mask="url(#mask0_5_77)">
<path d="M1941 0C1953.15 0 1963 9.84974 1963 22C1963 34.1503 1953.15 44 1941 44C1940.66 44 1940.33 43.9914 1940 43.9766V44C1682.94 26.2577 1543.35 25.9896 1303 44V43.9766C1302.67 43.9914 1302.34 44 1302 44C1301.83 44 1301.67 43.9969 1301.5 43.9932C1301.33 43.9969 1301.17 44 1301 44C1300.66 44 1300.33 43.9914 1300 43.9766V44C1042.94 26.2577 903.35 25.9896 663 44V43.9766C662.669 43.9914 662.335 44 662 44C661.833 44 661.666 43.9969 661.5 43.9932C661.334 43.9969 661.167 44 661 44C660.665 44 660.331 43.9914 660 43.9766V44C402.945 26.2577 263.35 25.9896 23 44V43.9766C22.6685 43.9914 22.3352 44 22 44C9.84974 44 0 34.1503 0 22C0 9.84974 9.84974 0 22 0C22.3351 0 22.6685 0.00763177 23 0.0224609V0C23.155 0.0167341 23.31 0.0321147 23.4648 0.0488281C24.0785 0.0891711 24.6853 0.154495 25.2842 0.244141C270.68 26.6547 409.941 27.0293 657.686 0.248047C658.296 0.155879 658.914 0.0898257 659.539 0.0488281C659.693 0.0321805 659.846 0.0166684 660 0V0.0224609C660.331 0.00763177 660.665 0 661 0C661.167 0 661.334 0.0021526 661.5 0.00585938C661.666 0.0021526 661.833 0 662 0C662.335 0 662.669 0.00763177 663 0.0224609V0C663.155 0.0167341 663.31 0.0321147 663.465 0.0488281C664.078 0.0891711 664.685 0.154495 665.284 0.244141C910.68 26.6547 1049.94 27.0293 1297.69 0.248047C1298.3 0.155879 1298.91 0.0898257 1299.54 0.0488281C1299.69 0.0321805 1299.85 0.0166684 1300 0V0.0224609C1300.33 0.00763177 1300.66 0 1301 0C1301.17 0 1301.33 0.0021526 1301.5 0.00585938C1301.67 0.0021526 1301.83 0 1302 0C1302.34 0 1302.67 0.00763177 1303 0.0224609V0C1303.15 0.0167341 1303.31 0.0321147 1303.46 0.0488281C1304.08 0.0891711 1304.69 0.154495 1305.28 0.244141C1550.68 26.6547 1689.94 27.0293 1937.69 0.248047C1938.3 0.155879 1938.91 0.0898257 1939.54 0.0488281C1939.69 0.0321805 1939.85 0.0166684 1940 0V0.0224609C1940.33 0.00763177 1940.66 0 1941 0Z" fill="#100909"/>
</g>
</svg>
