<svg width="589" height="39" viewBox="0 0 589 39" fill="none" xmlns="http://www.w3.org/2000/svg">
<mask id="mask0_10_7" style="mask-type:alpha" maskUnits="userSpaceOnUse" x="0" y="-1" width="589" height="40">
<path d="M1 16.1744C5.92464 18.8782 10.8011 21.3383 15.639 23.5505C10.8245 21.3514 5.94979 18.892 1 16.1744Z" fill="#D9D9D9"/>
<path d="M1 16.1744C5.92464 18.8782 10.8011 21.3383 15.639 23.5505C58.9391 43.329 97.3779 42.0642 141.894 18.4004C190.452 -2.92819 237.374 -3.88073 282.172 14.8825C283.511 15.4428 284.849 16.0218 286.188 16.6196C314.214 27.5913 344.302 31.0814 373.604 28.2737C389.129 26.0877 404.71 21.6292 420.787 15.0295C439.895 7.8181 458.957 3.72121 477.144 2.04449C526.911 -5.09569 566.731 9.18701 588.5 27.241C568.177 10.3866 525.786 -2.43979 477.144 2.04449C463.079 4.06246 448.219 7.79158 432.748 13.6303C414.059 21.3025 394.022 26.3171 373.604 28.2737C345.181 32.2757 316.944 28.6601 286.188 16.6196C284.849 16.0218 283.511 15.4428 282.172 14.8825C237.521 -3.81154 193.094 -1.7187 144.538 19.6088C99.9969 43.286 59.3959 43.5591 15.639 23.5505C10.8245 21.3514 5.94979 18.892 1 16.1744Z" fill="#D9D9D9"/>
<path d="M286.188 16.6196C240.181 -3.91972 194.549 -2.35799 144.538 19.6088C95.0722 45.9038 50.4661 43.3334 1 16.1744C50.4661 43.3334 92.4281 44.6954 141.894 18.4004C191.905 -3.56642 240.181 -3.91972 286.188 16.6196ZM286.188 16.6196C333.743 35.2368 387.238 32.3126 432.748 13.6303C502.961 -12.8677 560.578 4.08454 588.5 27.241C560.578 4.08454 490.999 -11.4685 420.787 15.0295C375.276 33.7118 333.743 35.2368 286.188 16.6196Z" stroke="white"/>
</mask>
<g mask="url(#mask0_10_7)">
<rect x="0.673584" y="0.104553" width="587.5" height="37.8318" fill="#D9D9D9"/>
<rect class="mask" x="0.874084" y="0.14679" width="0" height="37.9065" fill="#C14D4D"/>
</g>
</svg>
