<svg width="1921" height="587" viewBox="0 0 1921 587" fill="none" xmlns="http://www.w3.org/2000/svg">
<path d="M805.626 564.601C760.301 569.072 732.453 570.781 678.25 572.194H598.316H0M805.626 564.601C832.603 559.39 846.655 557.532 869.963 555.973M805.626 564.601C849.275 562.912 863.484 561.047 869.963 555.973M869.963 555.973C906.435 557.451 916.429 530.088 916.429 506.619M869.963 555.973C900.475 534.038 913.378 523.011 914.154 510.07C915.974 497.645 916.429 502.592 916.429 506.619M916.429 506.619L918.054 480.389C915.473 448.815 915.299 432.307 920.003 407.566C921.541 395.078 921.074 387.217 916.813 381.681M879.061 354.415C891.543 366.956 896.959 371.194 903.756 373.397C909.921 375.618 914.123 378.186 916.813 381.681M879.061 354.415C868.774 358.383 857.125 360.022 833.895 362.698M879.061 354.415C870.779 352.605 862.341 345.142 849.817 336.123M879.061 354.415C863.388 331.392 855.267 313.046 836.82 312.655M879.061 354.415C901.925 357.657 909.118 364.606 916.813 381.681M833.895 362.698C813.873 363.129 800.581 366.116 771.507 378.574M833.895 362.698L814.724 378.574C805.182 387.812 799.819 393.185 790.679 396.521M771.507 378.574C759.583 383.295 750.706 390.376 733.815 405.15C726.244 409.777 721.004 412.025 710.094 415.504M771.507 378.574L706.195 399.973M771.507 378.574C748.534 392.292 706.195 381.939 696.772 380.99M790.679 396.521C779.246 405.561 771.607 409.164 755.91 413.088M790.679 396.521C766.645 400.055 755.391 408.65 738.039 432.07M849.817 336.123C836.088 339.876 828.406 340.537 814.724 339.92C803.676 339.92 790.678 356.486 765.658 356.486M849.817 336.123C836.95 337.916 829.913 333.636 817.648 317.486C791.9 288.835 777.827 275.057 755.91 270.548C723.092 273.31 715.618 289.531 677.601 284.009M836.82 312.655C821.078 319.239 811.697 322.142 795.485 323.8M836.82 312.655C827.024 309.844 799.064 317.938 795.485 323.8M742.263 332.673C710.581 341.307 693.3 346.174 692.548 356.486C703.192 356.685 714.328 349.902 738.039 332.673C753.227 322.293 765.787 321.199 790.679 323.8M742.263 332.673C715.189 323.818 701.042 320.013 677.601 315.071M742.263 332.673C769.986 335.23 781.185 333.696 790.679 323.8M790.679 323.8C791.425 323.878 792.184 323.96 792.953 324.044C793.816 323.966 794.66 323.885 795.485 323.8M790.679 323.8C785.711 319.96 777.868 317.262 770.207 314.429M749.736 302.991C753.678 308.076 761.833 311.333 770.207 314.429M770.207 314.429C757.062 312.801 748.023 311.38 736.739 309.172M723.417 306.443C728.343 307.485 732.686 308.379 736.739 309.172M736.739 309.172C731.261 311.363 727.829 312.175 721.142 313M877.437 586C887.599 582.927 896.132 580.473 902.782 577.599M919.028 559.425C918.045 568.436 912.374 573.454 902.782 577.599M902.782 577.599C904.541 568.134 908.981 564.008 920.978 558.044C937.565 544.376 943.948 534.814 939.824 507.655C935.152 478.315 935.747 463.075 945.023 438.973C952.911 408.065 966.469 387.549 971.668 381.681C976.867 375.814 985.333 345.998 989.215 344.062C994.579 338.05 1002.34 335.241 1022.36 330.947C1043.45 322.281 1048.66 315.95 1047.38 302.301M683.449 268.133L700.021 269.513C700.021 269.513 680.2 222.02 689.298 245.699C698.397 269.378 692.223 271.584 730.24 278.487C747.51 285.653 759.042 285.354 781.58 280.213C822.802 277.472 851.991 287.562 875.812 299.885M875.812 299.885C858.965 301.903 849.571 298.211 832.92 281.938C819.325 261.112 809.252 254.879 787.104 252.947L772.807 245.699M875.812 299.885C890.4 314.679 899.091 318.04 915.129 318.867V316.106C911.43 309.899 909.359 306.422 905.381 299.885C902.987 285.539 898.782 279.241 884.26 272.274L873.862 263.991M875.812 299.885C869.843 275.904 865.822 265.926 856.641 258.469C845.198 248.078 839.824 243.41 833.895 239.142C825.603 237.241 808.932 231.669 791.978 221.54M875.812 299.885C893.757 301.709 899.227 306.742 905.381 318.867C913.989 336.463 917.306 346.177 915.129 362.698C914.772 372.61 916.867 379.345 923.253 392.726C926.976 403.651 926.293 415.111 924.552 436.557C925.817 484.796 929.409 500.08 938.525 516.283L955.421 538.717C962.096 552.521 977.651 554.02 1006.76 555.973L1050.63 559.425M772.807 245.699C758.081 240.651 749.828 239.697 735.114 242.593C727.52 243.805 722.922 243.876 714.318 243.283M772.807 245.699C762.407 230.912 753.893 225.652 732.84 222.92M732.84 222.92C726.556 220.765 717.322 215.371 702.621 207.044M732.84 222.92C728.33 221.31 725.819 220.453 721.792 220.159C703.981 219.907 696.257 216.754 686.374 206.009M873.862 263.991L851.117 254.673L835.195 250.186L823.822 245.699C805.744 238.148 797.88 233.157 791.978 221.54M873.862 263.991L868.338 252.947C865.334 236.392 861.264 228.011 845.268 216.363M791.978 221.54L789.054 204.974L780.281 192.894M791.978 221.54C776.318 213.142 764.785 209.951 742.913 204.974M742.913 204.974C733.029 194.731 727.565 189.406 718.868 185.646M742.913 204.974C734.784 204.448 729.85 203.05 719.842 197.036M845.268 216.363C836.031 213.224 828.971 209.177 813.749 198.761C800.312 195.011 793.605 190.104 783.53 174.947M845.268 216.363C830.623 196.063 822.659 184.595 818.948 160.451C814.434 142.391 812.109 132.393 810.175 115.929M783.53 174.947C768.401 171.998 760.815 168.679 750.386 157C741.64 150.965 735.934 150.741 724.067 157C718.048 157.585 714.581 157.331 708.145 155.274M783.53 174.947C772.615 160.544 766.43 152.899 753.636 150.788C749.608 148.322 746.452 146.219 743.888 144.213M783.53 174.947C781.006 170.601 780.1 165.553 780.281 147.336C778.604 140.737 775.76 134.538 771.253 126.973M733.815 132.15C736.325 137.005 739.058 140.437 743.888 144.213M743.888 144.213C744.427 127.565 742.376 119.901 732.84 110.407M756.235 104.195C762.587 113.418 767.497 120.67 771.253 126.973M771.253 126.973C771.253 107.646 768.194 101.293 758.185 89.3539M1050.63 559.425C1024.84 557.783 1007.01 560.209 971.343 568.398C956.466 565.076 949.79 561.252 951.197 538.717L947.948 501.442C943.185 473.788 941.048 460.663 942.424 460.371C939.104 440.438 940.139 431.133 949.897 419.646C965.535 405.348 971.119 397.336 972.318 383.062C972.318 383.062 970.693 356.832 972.318 332.327C972.834 324.54 975.418 317.547 979.142 311.577M1050.63 559.425L1265.41 564.947L1921 559.425M1124.39 195.31C1110.84 206.781 1101.24 218.342 1092.09 228.097M1124.39 195.31C1136.32 200.022 1144.93 193.439 1159.81 183.92M1124.39 195.31L1152.66 169.425M1092.09 228.097C1087.2 233.311 1082.44 238.009 1077.27 241.903C1059.4 248.08 1049.97 251.619 1040.23 258.814C1035.03 261.92 1023.33 287.874 1009.69 289.531C1000.38 290.661 987.134 298.762 979.142 311.577M1092.09 228.097C1112.73 224.254 1123.08 220.422 1141.29 213.257C1148.73 207.68 1151.35 204.04 1156.56 197.726M979.142 311.577C997.389 299.385 1008.94 296.424 1029.83 291.947C1045.61 288.476 1052.23 282.556 1063.63 271.239C1075.82 266.219 1081.39 263.127 1087.35 256.743C1093.37 252.397 1095.84 251.356 1100.02 249.841M1128.29 446.911C1124.5 445.023 1122.45 443.591 1119.19 438.973C1119.45 424.594 1115.79 418.443 1098.72 412.743C1098.72 412.743 1073.7 391 1059.4 376.849M1059.4 376.849C1095.46 396.192 1115.82 406.058 1152.66 419.646M1059.4 376.849C1028.89 357.904 1015.37 353.953 1002.54 367.876C1000.29 375.68 1001.66 377.407 1007.74 376.849C1022.54 373.408 1030.08 370.246 1041.53 361.318C1045.19 358.701 1048.61 356.439 1051.93 354.459M1059.4 376.849C1050.87 368.405 1031.34 357.502 1015.53 359.618M943.724 395.141C949.975 404.658 956.833 405.281 971.668 402.734C984.659 399.723 989.004 395.919 993.114 386.513C995.866 368.421 1004.85 361.047 1015.53 359.618M943.724 395.141C935.734 386.563 934.664 378.912 940.799 358.557M943.724 395.141C946.727 371.014 944.642 360.823 934.625 348.203C931.416 340.62 931.008 335.538 932.026 325.425C930.089 310.937 929.549 302.742 931.051 287.805M940.799 358.557L948.598 329.566M940.799 358.557C940.769 344.646 936.704 336.088 930.076 320.938C926.069 310.736 924.06 302.949 920.978 284.699C915.772 269.695 913.433 261.691 911.23 248.805M948.598 329.566C950.098 327.372 951.481 325.312 952.756 323.354M948.598 329.566C949.897 320.593 948.658 285.002 942.749 276.071C942.089 271.054 941.882 264.076 941.774 245.009C941.759 242.523 940.807 239.701 938.958 236.38M952.756 323.354C960.885 310.873 964.676 302.504 967.119 289.531C967.665 273.028 968.991 265.393 973.618 255.363L978.167 237.416M952.756 323.354C953.626 305.889 957.358 298.311 968.419 287.805L977.192 278.832M910.905 201.867C925.003 217.674 934.54 228.448 938.958 236.38M910.905 201.867C912.435 209.62 912.468 214.566 911.23 224.301C909.159 234.695 909.52 239.917 911.23 248.805M910.905 201.867L906.031 191.513M938.958 236.38C931.437 218.444 928.745 209.138 927.477 194.274M927.477 194.274C930.015 184.249 935.494 174.011 945.068 157.345M927.477 194.274C927.441 191.201 926.866 188.577 925.512 185.646M931.051 287.805C935.581 274.474 938.38 269.001 943.724 261.92C955.512 241.145 958.974 229.583 958.671 209.115M931.051 287.805C931.85 266.679 928.053 257.769 911.23 248.805M911.23 248.805C908.739 246.389 894.658 237.416 890.759 234.31C886.86 231.203 882.44 204.84 863.139 194.274M911.23 248.805C901.109 234.742 896.491 226.331 892.709 209.115C887.834 195.404 883.983 185.94 876.137 179.75M816.024 153.549C834.972 157.489 844.27 161.419 857.94 172.186C865.915 173.767 871.673 176.229 876.137 179.75M816.024 153.549L799.127 121.451C795.756 112.326 793.857 107.224 791.978 95.5663C789.426 89.3206 786.621 85.0057 778.656 75.5486M816.024 153.549C799.291 147.872 791.68 143.28 784.83 129.734C784.578 109.366 782.954 99.211 772.807 87.2831M876.137 179.75L857.94 155.274M857.94 155.274C854.273 143.945 852.647 137.783 850.142 126.973M857.94 155.274C852.97 151.519 850.681 148.885 847.217 143.54C843.914 137.217 841.345 133.321 835.195 125.593C831.621 112.82 828.155 106.689 817.323 99.0177M906.031 191.513C897.49 178.995 894.23 170.304 892.709 150.097L888.934 123.177M906.031 191.513C904.216 177.234 905.098 168.956 911.23 153.549L918.703 124.212L921.953 108.336C925.634 94.5904 925.505 87.3007 918.703 75.5486M820.573 43.7964C822.152 51.6527 825.294 54.8578 831.945 60.0177L868.338 90.0442C870.126 91.0109 871.744 91.9587 873.212 92.905M918.703 174.947C906.785 166.006 900.095 159.022 888.159 145.611L860.54 112.133M918.703 174.947C921.949 179.363 924.134 182.664 925.512 185.646M918.703 174.947L908.955 148.372L888.934 123.177M860.54 112.133C852.942 96.4553 848.263 88.3631 838.119 76.9292M860.54 112.133L843.643 99.0177M843.643 99.0177C830.987 79.4643 820.711 69.0535 799.127 51.0442M843.643 99.0177C817.739 87.9684 806.612 81.047 791.978 67.6106M949.248 150.097C947.775 152.645 946.383 155.056 945.068 157.345M945.068 157.345C942.97 140.133 944.799 130.972 956.071 115.929M925.512 185.646C927.695 173.432 929.512 166.542 928.127 154.584M928.127 154.584C938.052 126.606 943.828 110.674 942.099 96.2566M928.127 154.584L902.782 99.0177M942.099 96.2566C940.293 89.5111 938.667 85.2524 935.275 77.2743M942.099 96.2566C944.728 76.4618 944.057 65.4154 938.85 45.8672C936.44 40.7864 935.893 36.7299 935.275 28.9557L928.452 6.17699C934.608 28.2233 937.619 41.3465 951.522 50.0088M935.275 77.2743C934.732 69.5888 933.564 65.4698 930.726 58.292M935.275 77.2743C926.195 65.6793 921.185 58.0099 912.53 40.3451M912.53 40.3451C910.073 31.5332 909.236 22.4564 907.981 4.45133M912.53 40.3451C903.54 32.0185 899.5 27.2176 900.507 17.5664M902.782 99.0177C902.782 99.0177 904.081 93.1504 904.406 79.3451C904.731 65.5398 900.032 59.2757 899.532 47.5929M902.782 99.0177C899.649 89.905 897.137 84.0731 891.409 72.4424C890.198 61.6965 889.942 54.7541 889.784 41.7256L883.935 25.8495M888.934 123.177L888.159 117.655C886.245 105.771 883.245 99.3727 873.212 92.905M888.934 123.177C882.978 114.4 872.556 94.1141 873.212 92.905M873.212 92.905L856.641 64.5044M873.212 92.905C874.497 80.1979 874.229 71.3117 873.212 54.4956C873.421 43.3492 872.514 37.67 868.338 28.9557C866.181 24.4328 865.538 21.1316 865.739 13.4248M856.641 64.5044C847.074 59.2299 842.021 55.9168 834.22 48.6283M856.641 64.5044L850.792 49.6637M850.792 49.6637C848.649 40.9285 846.377 34.2111 842.018 21.708M850.792 49.6637C844.02 44.1827 840.615 39.7163 835.52 28.2655M958.671 209.115C961.877 181.289 970.809 172.887 988.24 159.416C1000.41 146.147 1006.07 141.256 1016.18 132.496M958.671 209.115C952.98 196.435 952.37 189.724 955.746 178.398L965.494 159.416C970.51 151.841 970.524 143.748 968.094 125.938L969.394 81.761M1016.18 132.496L1052.25 119.035M1016.18 132.496C1024.38 115.644 1029.88 107.135 1040.88 93.1504C1045.92 83.5395 1049.97 76.0358 1053.88 69.615M1052.25 119.035C1066.74 115.897 1074.25 115.655 1087.35 115.929C1099.71 118.35 1104.16 116.255 1110.09 109.717M1052.25 119.035C1057.29 113.799 1062.17 110.087 1067.85 106.752M1089.3 96.2566C1080.55 100.211 1073.77 103.277 1067.85 106.752M1067.85 106.752C1070.24 100.131 1072.68 94.6012 1076.28 87.9734M1087.35 69.3363C1082.6 76.9225 1079.09 82.7846 1076.28 87.9734M1076.28 87.9734C1081.07 82.0509 1085.58 78.7223 1093.19 72.7876M1069.47 48.6283C1066.02 52.4016 1063.03 56.0758 1060.19 60.0177M1060.19 60.0177C1066.77 57.461 1069.8 55.4847 1073.7 50.6991M1060.19 60.0177C1058.04 63.0092 1055.98 66.1549 1053.88 69.615M1053.88 69.615L1050.3 32.0619M951.522 50.0088C949.75 45.1211 948.383 40.7702 947.424 36.5487M951.522 50.0088C962.2 63.604 966.654 70.7318 969.394 81.761M947.948 1C945.18 16.2714 945.028 26.0065 947.424 36.5487M947.424 36.5487L953.797 18.9469M969.394 81.761C970.061 72.4402 970.8 66.3984 972.838 56.2212M995.389 18.9469C992.388 25.1876 990.05 28.6017 984.341 34.4779C984.023 34.8295 983.716 35.1741 983.418 35.5133M983.418 35.5133C978.947 40.6057 976.639 44.4706 973.618 52.4248C973.338 53.7563 973.079 55.0177 972.838 56.2212M983.418 35.5133C982.693 25.1236 983.216 19.441 986.29 9.62831M972.838 56.2212C972.426 39.3383 972.499 31.2641 974.593 25.8495C978.485 15.5811 979.156 12.2023 978.817 8.59292M977.192 278.832C996.717 270.076 1003.17 264.513 1008.06 253.637C1010.16 250.034 1012.01 246.867 1013.66 243.973M977.192 278.832C986.467 262.406 994.66 257.568 1011.31 251.911C1031.16 244.917 1038.79 237.294 1047.38 218.434C1047.68 217.726 1047.98 217.036 1048.28 216.363M1023.98 223.265C1021.15 230.303 1018.13 236.132 1013.66 243.973M1013.66 243.973C1012.94 226.006 1015.61 216.959 1026.58 202.903M1048.28 216.363C1055.94 199.305 1063.78 193.073 1077.27 182.195L1087.35 171.496M1048.28 216.363C1066.81 202.995 1076.47 194.962 1092.09 179.434M1087.35 171.496C1090.98 156.386 1095.91 149.186 1110.09 138.708M1087.35 171.496C1091.82 167.748 1094.81 166.235 1100.99 164.593M1110.09 138.708C1110.93 134.77 1117.31 128.863 1125.36 120.416M1110.09 138.708C1128.95 129.582 1134.4 126.465 1137.39 123.522M1100.99 164.593C1105.53 158.543 1113.1 154.987 1124.39 148.717M1100.99 164.593L1119.84 161.832L1146.48 148.717M978.167 237.416C976.96 218.268 978.687 207.393 986.615 187.717C998.61 161.465 1006.7 146.479 989.54 125.938C988.01 117.903 988.471 113.067 991.814 103.85M978.167 237.416C985.748 211.385 991.99 200.319 1007.74 188.752M991.814 103.85C1004.88 93.6842 1010.49 87.5721 1015.86 75.5486M991.814 103.85C984.103 95.6623 987.222 86.8376 995.389 69.615M991.814 103.85C994.766 89.0738 996.759 80.484 995.389 69.615M1015.86 75.5486C1018.35 61.9608 1018.94 57.1991 1019.43 50.6991M1015.86 75.5486C1026.73 62.5196 1031.04 55.9224 1031.78 46.9026M995.389 69.615C995.216 68.8048 995.052 68.023 994.898 67.2655M993.764 43.7964C992.576 52.7774 993.081 58.3357 994.898 67.2655M994.898 67.2655C1008.18 48.0794 1013.51 37.4668 1017.16 18.9469M1007.74 188.752C1045.63 173.125 1061.72 163.4 1078.9 143.885M1007.74 188.752L1026.58 167.354M1026.58 167.354C1029.62 153.987 1031.73 147.36 1036.98 138.708M1026.58 167.354C1030.57 163.741 1033.24 162.029 1038.61 159.416C1044.28 156.506 1047.11 154.633 1050.95 150.442M1095.47 339.575C1112.66 328.088 1136.84 330.723 1183.85 337.849M1095.47 339.575C1120.71 336.997 1139.44 328.867 1171.18 316.796M1095.47 339.575C1076.62 343.19 1065.07 346.612 1051.93 354.459M1015.53 359.618C1008.13 356.609 1005.91 353.509 1008.71 343.026C1016 324.254 1023.94 319.706 1044.13 320.938M1015.53 359.618C1021.64 354.787 1031 354.141 1051.93 354.459M1044.13 320.938C1067.97 322.896 1078.01 319.862 1088.65 305.407C1097.78 291.072 1103.63 283.199 1115.62 269.513M1044.13 320.938C1056.96 319.227 1063.63 315.632 1075.32 308.168M1075.32 308.168C1094.57 303.088 1102.6 302.431 1115.62 302.301M1075.32 308.168C1082.56 300.36 1089.53 296.065 1104.89 288.495C1142.43 265.658 1152.59 259.551 1152.98 259.504M1115.62 302.301C1140.72 287.822 1156.87 286.224 1186.45 285.734M1115.62 302.301C1133.06 303.484 1141.11 302.937 1150.06 298.159M1115.62 269.513C1123.69 254.367 1133.61 247.819 1150.06 235.69C1158.93 229.965 1163.13 226.181 1170.2 219.124M1115.62 269.513C1142.94 245.472 1158.15 240.858 1185.15 243.283M1051.93 354.459C1069.31 348.87 1076.79 350.115 1089.95 352.69M1089.95 352.69C1099.73 364.574 1106.52 367.122 1119.19 369.947M1089.95 352.69C1105.65 356.133 1111.84 360.071 1119.19 369.947M1119.19 369.947C1129 383.579 1133.96 389.6 1141.29 395.832M1119.19 369.947C1120.08 370.548 1120.95 371.122 1121.79 371.671M1154.61 381.681L1171.18 386.513C1142.29 377.28 1142.69 372.493 1173.45 364.77M1154.61 381.681C1145.2 383.394 1138.69 382.712 1121.79 371.671M1154.61 381.681C1145.96 373.246 1138.67 371.175 1121.79 371.671" stroke="#A08500" stroke-width="2"/>
</svg>
