<svg width="1690" height="116" viewBox="0 0 1690 116" fill="none" xmlns="http://www.w3.org/2000/svg">
<path d="M0.5 59.6771L382.252 58.9851H549.66C555.557 58.1548 572.839 60.203 594.791 75.0383C616.743 89.8736 630.014 95.1509 633.905 95.9351C641.848 97.8264 663.848 97.0145 686.859 81.4042L697.33 76.4222L705.153 73.1008L715.142 69.7795L721.159 68.8108C738.188 67.9533 752.571 71.5786 755.459 74.4847C758.348 77.3909 756.903 81.4042 753.293 82.5113C751.286 82.2391 750.877 81.0681 748.358 80.8506C745.84 80.6332 744.632 82.0306 744.146 84.172C743.907 86.6278 745.024 87.6205 748.238 89.0156C748.238 89.0156 747.155 90.3995 744.868 93.7209C742.582 97.0422 746.914 101.332 749.201 98.7029L752.691 95.2431C752.691 95.2431 753.173 96.2119 754.135 98.7029C755.098 101.194 758.949 100.087 759.551 98.7029L760.032 96.627L758.468 88.3237C758.468 88.3237 777.965 68.8108 779.409 65.6278C780.853 62.4449 776.521 59.5387 775.076 61.3377L769.901 65.7662L769.42 66.1814H767.735L765.087 65.351L757.024 62.3065L762.921 55.5254L771.105 58.1548L760.394 69.6411C759.958 69.8513 759.656 69.8209 759.07 69.6411C759.07 69.6411 752.556 68.0819 749.682 66.3198C747.757 65.2126 747.396 61.4761 749.682 60.0922L755.7 53.0344L747.516 49.713C747.516 49.713 743.424 54.0031 742.461 54.9718C741.499 55.9406 739.332 55.8022 738.61 54.9718C737.888 54.1415 737.647 52.896 737.647 52.896C737.631 50.6882 738.115 49.3824 739.814 47.4988C735.793 45.9434 733.074 45.5614 733.435 41.5481C733.877 39.3323 734.657 38.574 736.684 38.2267C739.203 38.5597 739.995 38.9346 741.739 39.6106C741.159 34.7758 741.604 33.0507 744.628 32.8295C747.841 32.8642 748.047 36.9416 749.081 42.5168L757.746 45.8382L754.617 28.2627C754.782 25.6129 755.434 24.7855 757.625 24.5262L769.179 27.9859L773.752 51.2353L764.726 48.1908L762.199 33.6599L772.549 36.8428C773.874 36.8794 774.334 36.5378 774.354 34.9054L771.225 18.9906L764.606 16.9148C763.155 16.0455 762.628 15.2939 762.68 13.0399C763.164 10.8376 763.841 10.0426 765.93 9.58014L769.299 10.5489C768.641 8.07378 768.476 4.80599 768.577 4.04456C768.679 3.28314 769.901 1 771.586 1C773.271 1 774.114 1.96872 774.595 4.04456C775.076 6.12041 775.234 7.21429 775.678 9.02658C777.069 7.21472 777.885 6.31327 779.529 6.2588C780.997 6.25364 781.952 7.2576 782.779 9.02658C782.954 9.76163 782.932 10.1886 782.779 10.964L777.483 17.4683L779.409 27.294L789.518 17.1916C791.288 15.3563 791.941 15.4025 792.527 15.3925C793.658 15.4474 794.814 16.2228 795.295 17.3299L796.378 21.7584L797.943 29.2314L799.026 34.2134L805.645 27.294L804.322 18.8522C805.202 16.5998 805.949 15.958 807.691 15.8077C809.417 15.9265 810.003 16.9901 811.061 18.8522L811.783 21.2048L815.514 17.3299C817.602 16.5836 818.448 16.7455 819.486 17.8835C820.38 19.1591 820.453 20.5413 819.726 22.4504L816.357 26.4636C816.357 26.4636 816.236 26.3253 819.004 28.1243C821.772 29.9234 820.569 35.459 816.357 34.3518L810.82 32.4144L803.84 39.4722C803.84 39.4722 811.543 42.3784 816.357 44.5926C821.171 46.8069 821.171 50.405 816.477 54.4183L808.534 63.1368L789.278 56.7709C785.763 55.7295 784.474 54.4155 783.862 50.2666L781.214 36.0125L790.481 26.0485L793.61 40.0258L789.278 45.8382C787.662 48.873 790.149 52.638 793.61 50.6818L798.184 45.9765L810.7 50.405L803.84 57.7396C806.063 70.1333 807.37 75.8714 809.737 85.4175C810.31 89.8975 809.127 90.965 805.164 91.0915L791.685 86.663L793.61 97.1806L800.109 99.5332C801.794 100.364 802.396 105.622 798.424 106.176L795.295 105.622C795.295 105.622 795.656 107.283 796.138 110.604C796.619 113.926 792.527 117.524 790.12 112.542L788.796 107.283L786.75 109.082C783.4 110.798 780.251 108.252 782.779 103.547L787.352 98.4261L785.186 88.0469L774.475 99.5332C772.91 101.747 770.262 100.917 769.661 99.5332C769.338 99.2186 766.529 86.8696 765.809 82.5113C765.089 78.1531 771.12 77.0013 771.827 80.1587L773.993 89.7076L783.501 79.7435L780.853 66.4582C780.973 63.1368 785.547 62.0297 786.75 64.9359L789.639 77.9445L802.035 82.2346L799.507 67.9805L815.514 73.2392C815.514 73.2392 816.236 77.1142 817.079 80.5739C817.921 84.0336 823.698 83.6185 823.217 78.2213L821.772 71.4402L827.188 65.3511C827.431 61.1177 824.42 59.5387 822.615 60.6458L819.004 64.5207C817.822 66.0326 817.696 67.0847 818.162 69.226L821.772 83.8952C826.586 100.087 836.455 104.238 851.499 97.1806C851.499 97.1806 854.387 94.4128 855.109 92.7521C855.832 91.0915 854.316 88.1373 851.86 89.7076L850.416 92.7521C850.267 95.1093 850.749 96.0081 852.582 96.9038L855.711 97.0422C855.711 97.0422 854.989 99.2564 854.026 101.747C853.063 104.238 855.832 108.805 859.562 105.069L861.608 100.087C864.054 102.784 865.506 103.176 867.506 101.747C868.706 99.2336 868.504 97.8824 866.904 95.5199L860.044 84.7256L861.729 79.4668L853.425 80.4355C853.425 80.4355 851.499 85.2791 850.656 87.2166C849.814 89.154 844.759 89.9844 844.639 85.0023L845.241 81.8194C843.247 82.098 842.114 82.1579 840.066 82.0962C836.82 80.9642 836.816 76.2838 840.066 74.8999L844.639 74.4848C844.639 74.4848 844.44 74.0714 843.195 71.025C841.949 67.9786 846.685 65.0743 849.092 68.3956L852.702 73.6544L861.127 71.9937L855.832 64.3823L851.258 64.7975C848.186 65.154 846.204 63.8288 846.204 61.3378C846.204 58.8468 847.77 57.7971 851.258 57.1861L848.851 53.7263C847.553 51.8449 847.407 49.4363 849.092 48.3292C850.754 47.2143 852.101 47.222 853.304 48.4676L856.193 52.4808L857.757 50.405C858.991 48.61 859.761 48.7972 861.127 49.0211C862.996 50.0145 863.053 51.3737 863.053 52.2041V54.0031L861.007 59.6771L866.061 67.5653L869.552 58.4316C869.552 58.4316 865.7 56.079 865.7 52.4808C865.7 48.8827 868.202 47.1265 869.792 47.914C871.382 48.7015 872.167 50.3961 872.44 50.5434L874.486 45.423C875.169 44.1924 875.417 43.3151 877.013 43.3471C878.398 43.3639 879.087 44.3615 879.661 45.423C880.032 46.7566 880.01 47.4784 879.781 48.7443L878.457 53.4496H881.587C883.173 54.4572 883.567 55.1616 883.512 56.6325C883.519 59.2278 882.408 59.6121 880.864 60.5074L875.689 61.061L872.199 70.4715L870.996 73.7928L871.477 75.7303L877.976 85.5559L884.595 84.864C886.378 85.6252 886.944 86.4523 887.243 88.6005C886.81 91.6138 885.765 92.4844 882.91 93.0289L885.678 97.8726C885.985 101.309 885.249 102.517 881.466 102.716L877.615 98.0109L874.967 101.609C871.705 101.493 870.501 100.563 871.116 95.9351L873.042 90.2611L864.737 77.1142C864.183 73.3213 864.761 71.8844 867.987 71.025L879.42 69.5027L881.466 67.1501L882.91 63.2752C883.779 61.8075 884.393 61.3105 885.799 61.061C888.146 61.7121 888.581 62.7247 888.808 64.9359L888.326 67.8421L893.862 67.7037C895.606 68.268 896.101 69.1193 896.51 71.1634C896.066 73.6017 895.287 74.403 893.02 74.8999L889.289 75.3151L890.613 77.5293C890.736 81.357 889.917 82.4132 887.002 82.5113C884.675 82.1785 882.549 78.2213 883.151 76.4222C884.323 73.9549 885.36 73.6631 887.724 74.6231L897.593 85.1407C906.826 93.2263 911.678 95.1657 919.978 95.7967C934.226 96.0362 942.604 92.6138 959.092 83.7568L990.263 66.3198C997.005 62.7685 1002.19 60.5934 1007.35 59.5313C1010.31 58.9236 1013.26 58.6803 1016.5 58.7522C1018.56 58.7981 1070.81 58.4626 1073.18 58.7522H1100.02H1335.07L1689.5 62.3065" stroke="url(#paint0_linear_16_2)" stroke-width="2"/>
<defs>
<linearGradient id="paint0_linear_16_2" x1="0.5" y1="58" x2="1689.5" y2="58" gradientUnits="userSpaceOnUse">
<stop stop-color="#574B3D"/>
<stop offset="1" stop-color="#CA970A"/>
</linearGradient>
</defs>
</svg>
